<svg width="184" height="185" viewBox="0 0 184 185" fill="none" xmlns="http://www.w3.org/2000/svg">
<path fill-rule="evenodd" clip-rule="evenodd" d="M127.265 109H182.541C174.802 152.214 137.209 185 92 185C46.7911 185 9.19839 152.214 1.45941 109H55.7345C62.045 122.591 75.6874 132 91.5 132C107.313 132 120.955 122.591 127.265 109ZM129.488 81H183.296C177.664 35.3405 138.937 0 92 0C45.063 0 6.33556 35.3405 0.704048 81H53.5124C58.2311 64.2574 73.452 52 91.5 52C109.548 52 124.769 64.2574 129.488 81ZM91.5 116C104.479 116 115 105.255 115 92C115 78.7452 104.479 68 91.5 68C78.5213 68 68 78.7452 68 92C68 105.255 78.5213 116 91.5 116Z" fill="#FFFFFF" fill-opacity="0.40"/>
</svg>
